<svg xmlns="http://www.w3.org/2000/svg" viewBox="0 0 651.7 267.1">
	<g>
		<g>
			<g>
				<g>
					<path fill="#ffffff" d="M148.9,138.1c1.3,10.2,2.8,14.2,8,15.8c3.2,0.9,6.9,1.3,9,1.4c2,0,3,0.5,3,1.6c0,1.3-1.3,1.6-3.8,1.6
						c-13.1,0-25.8,0-43.8-0.9c-3-0.2-3.6-1.1-3.6-1.9c0-0.6,0.6-1.3,1.7-1.6c2.5-0.9,2.7-1.9,2-9l-5.7-56.4l-32.4,60.8
						c-4.3,8-5.2,9-6.5,9c-1.7,0-2.7-1.6-7.1-8.5c-5.5-8.8-15.1-26.8-21.1-36.9c-2.7-4.6-9.6-17.5-12.6-22.8l-4.6,44.4
						c-0.6,6.8-0.6,10.2-0.6,12.6c0,4.6,1.6,6.5,5.5,7.2c2.4,0.5,3.8,0.6,5.8,0.8c2.4,0,2.8,0.5,2.8,1.4c0,1.3-0.6,1.7-3.2,1.7
						c-6.9,0-15.6-0.5-20.3-0.5c-4.9,0-12.3,0.5-18.1,0.5c-1.6,0-3.5,0-3.5-1.6c0-0.9,0.9-1.6,3.2-1.6c1.3-0.2,3-0.2,4.7-0.5
						c4.6-0.9,6.1-4.6,7.7-15l14.3-96.9c0.6-4.7,1.7-6.1,3.3-6.1c1.7,0,2.8,1.6,6.1,6.5l45,75.4l43.2-76.2c2.5-4.1,3.8-5.7,5.4-5.7
						s2.5,2.2,3,6.1L148.9,138.1z"/>
					<path fill="#ffffff" d="M158,107.3c0-28.5,19.5-54,61-54c35.9,0,58.4,24.1,58.4,50.9c0,32-22.2,56.1-59.4,56.1
						C176.1,160.3,158,131.4,158,107.3z M247.1,110.5c0-20.8-7.6-48-33.1-48c-12.1,0-25.8,6.1-25.8,38.1c0,25.2,10.1,50.2,33.6,50.2
						C230.4,150.8,247.1,147.5,247.1,110.5z"/>
					<path fill="#ffffff" d="M290,94.7c0-21.3-0.2-23.3-0.5-27.7c-0.3-5.8-2.8-7.7-5.8-8c-2.5-0.5-3.8-0.5-4.9-0.6
						c-1.7,0-2.4-0.8-2.4-1.6c0-0.8,0.5-1.6,2.8-1.6c5.7,0,20.2,0.5,21.9,0.5c2.4,0,17.2-0.5,24.3-0.5c14.2,0,23.9,1.4,29.6,4.6
						c7.6,3.8,13.4,10.6,13.4,21.3s-7.2,19.4-18.7,26.8c7.4,11.3,17.5,26.3,26.1,35.9c7.2,8.3,10.6,10.4,15,11
						c1.4,0.3,2.7,0.3,3.8,0.5c1.4,0.2,2.2,0.9,2.2,1.7c0,1.3-1.6,1.4-2.8,1.4h-12.3c-16.4,0-23.2-1.6-28.4-4.9
						c-4.1-2.7-8.5-8.2-13.5-16.4c-6.6-11-9-15.6-11.7-19.7c-0.2-0.5-0.8-0.8-1.6-0.8l-9.5-0.2c-0.6,0-1.1,0.3-1.1,1.1v8.3
						c0,10.2,0.3,16.9,0.6,20.9c0.3,3.5,1.1,6.3,5.4,7.4c1.9,0.6,4.7,0.8,6.5,0.9c2.5,0.2,2.5,0.9,2.5,1.7c0,0.8-0.6,1.4-2.7,1.4
						c-9.6,0-26.3-0.5-27.1-0.5c-1.6,0-16.4,0.5-20.9,0.5c-2.4,0-2.8-0.8-2.8-1.7c0-0.8,0.9-1.4,2.5-1.4c1.3-0.2,3.3-0.2,4.9-0.5
						c2.8-0.6,4.1-3,4.4-7.9c0.6-5.7,0.8-14.8,0.8-28.2V94.7z M316,103.2c0,0.9,0.6,1.6,1.3,2c2.7,1.4,7.6,1.9,11.7,1.9
						c3.2,0,6.5-0.6,8.7-2.2c2.5-1.9,4.9-7.4,4.9-16.2c0-19.4-13.2-23.9-20.3-23.9c-2,0-4.4,0-5.2,0.5c-0.6,0.3-0.9,0.5-0.9,1.6
						V103.2z"/>
					<path fill="#ffffff" d="M399,94.7c0-22.7-0.2-25.2-0.5-29.6c-0.3-3.5-1.7-5.7-5-6.3c-1.3-0.3-2.8-0.3-4.3-0.5
						c-2-0.2-2.4-0.9-2.4-1.7c0-0.8,0.8-1.4,3-1.4c8.5,0,15.1,0.5,21.1,0.5c2.5,0,38.7-0.2,41-0.2c2.7,0,5.7-0.2,8-0.6
						c0.9-0.3,1.7-0.5,2.2-0.5c0.8,0,1.1,0.6,0.9,1.4c-0.3,1.7-0.8,3.5-1.1,6.6c-0.2,3.5-0.3,6.3-0.8,14.8c0,1.1-0.6,2.2-1.6,2.2
						c-0.8,0-1.4-0.6-1.6-1.9c-0.3-1.9-0.3-3-0.8-5c-0.8-3.2-2.5-5-9.3-5.7c-5.2-0.3-16.7-0.6-21.1-0.6c-0.8,0-1.1,0.5-1.1,1.4v28.8
						c0,0.9,0.2,1.3,1.1,1.3c4.3,0,14,0,19.5-0.2c7.7-0.3,9.6-0.8,11.3-3.5c0.6-1.3,1.3-1.7,1.9-1.7c0.9,0,1.1,0.9,1.1,1.7
						c0,1.6-0.9,7.6-1.1,12.6c-0.2,3-0.3,10.2-0.3,11.8c0,1.9-0.5,2.4-1.4,2.4c-0.8,0-1.4-0.6-1.6-2.2c-0.2-0.8-0.2-1.7-0.3-2.7
						c-0.8-4.3-2.4-6.8-9.8-7.2c-4.4-0.3-15.1-0.5-19.5-0.5c-0.8,0-0.9,0.3-0.9,1.1v9.9c0,4.6-0.2,11,0,16.5
						c0.2,9.6,1.9,11.8,18,11.8c3.6,0,9.1-0.2,13.1-1.6c3.9-1.6,5.5-4.9,6.8-11.2c0.3-1.6,0.9-2.4,1.9-2.4c1.1,0,1.3,1.1,1.3,2.8
						c0,6-1.4,17-2,19.7c-1.1,3.5-2.2,3.6-7.4,3.6c-21.1,0-31.2-0.8-46.2-0.8c-6.6,0-13.4,0.5-21.4,0.5c-2.7,0-3.3-0.8-3.3-1.7
						c0-0.6,0.5-1.4,2.8-1.4c1.4-0.2,2.5-0.2,4.1-0.5c4.6-0.8,5-6.1,5.5-15.8c0-5.2,0.2-12.8,0.2-20.3V94.7z"/>
					<path fill="#ffffff" d="M511.6,118.8c0,12.9-0.5,22.8,1.7,25.8c2,2.8,4.6,3.3,16.4,3.3c7.9,0,11.7-0.2,15.6-1.6
						c3.9-1.6,6.9-4.9,8.7-12.4c0.3-1.6,0.8-2.8,2-2.8c0.9,0,1.3,0.9,1.3,2.8c0,3.5-2,17.2-3.5,21.1c-1.3,3.6-2.2,3.6-7.4,3.6
						c-21.3,0-34.3-0.8-49.3-0.8c-6.6,0-13.7,0.5-21.7,0.5c-2.2,0-3.3-0.5-3.3-1.7c0-0.6,0.8-1.4,2.7-1.4c1.4-0.2,1.7-0.2,3.3-0.3
						c5.7-0.9,6.3-3.2,6.8-15.8c0-5.4,0.2-12.9,0.2-20.5V94.7c0-22.7-0.2-24.3-0.5-28.7c-0.3-3.8-1.6-6-4.9-6.9
						c-1.3-0.3-3.2-0.6-5.2-0.8c-1.6-0.2-2.8-0.5-2.8-1.6c0-1.1,1.1-1.6,3.9-1.6c8.5,0,15.4,0.5,21.4,0.5c0.8,0,19.1-0.5,24.1-0.5
						c2.5,0,3.2,0.6,3.2,1.4c0,1.3-1.3,1.7-2.5,1.7c-1.6,0.2-2.2,0.2-4.3,0.6c-3.9,0.6-5,3.2-5.4,8c-0.3,4.4-0.5,6.5-0.5,29.5V118.8z
						"/>
					<path fill="#ffffff" d="M597.1,118.8c0,12.9-0.5,22.8,1.7,25.8c2,2.8,4.6,3.3,16.4,3.3c7.9,0,11.7-0.2,15.6-1.6
						c3.9-1.6,6.9-4.9,8.7-12.4c0.3-1.6,0.8-2.8,2-2.8c0.9,0,1.3,0.9,1.3,2.8c0,3.5-2,17.2-3.5,21.1c-1.3,3.6-2.2,3.6-7.4,3.6
						c-21.3,0-34.3-0.8-49.3-0.8c-6.6,0-13.7,0.5-21.7,0.5c-2.2,0-3.3-0.5-3.3-1.7c0-0.6,0.8-1.4,2.7-1.4c1.4-0.2,1.7-0.2,3.3-0.3
						c5.7-0.9,6.3-3.2,6.8-15.8c0-5.4,0.2-12.9,0.2-20.5V94.7c0-22.7-0.2-24.3-0.5-28.7c-0.3-3.8-1.6-6-4.9-6.9
						c-1.3-0.3-3.2-0.6-5.2-0.8c-1.6-0.2-2.8-0.5-2.8-1.6c0-1.1,1.1-1.6,3.9-1.6c8.5,0,15.4,0.5,21.4,0.5c0.8,0,19.1-0.5,24.1-0.5
						c2.5,0,3.2,0.6,3.2,1.4c0,1.3-1.3,1.7-2.5,1.7c-1.6,0.2-2.2,0.2-4.3,0.6c-3.9,0.6-5,3.2-5.4,8c-0.3,4.4-0.5,6.5-0.5,29.5V118.8z
						"/>
				</g>
			</g>
			<g>
				<g>
					<path fill="#ffffff" d="M10.1,232.7l-5.4-0.6v-2.5h13.1l7,22.3l1.6,6.3L28,252l6.9-22.3H48v2.5l-5.5,0.6l4,30.8l4.3,0.5v2.4H36.5
						v-2.4l4.5-0.5l-2.2-22.3l-1-9.6l-2.1,7.1l-8.3,26h-3.2l-8-23.8l-2.9-9.4l-0.9,9.6l-2,22.3l4.9,0.5v2.4h-13v-2.4l4.2-0.5
						L10.1,232.7z"/>
					<path fill="#ffffff" d="M54.7,263.1c-2.1-2.6-3.2-6.1-3.2-10.5c0-2.9,0.5-5.4,1.6-7.6c1.1-2.2,2.6-3.9,4.6-5.1
						c2-1.2,4.2-1.8,6.7-1.8c3.1,0,5.5,0.9,7.2,2.6c1.7,1.7,2.6,4.1,2.7,7.3c0,2-0.1,3.6-0.3,4.6H56.9c0.1,3.3,0.8,5.9,2.3,7.9
						c1.5,2,3.5,3,6.2,3c1.3,0,2.7-0.2,4.1-0.7c1.4-0.5,2.6-1,3.3-1.7l0.9,2.2c-1,1-2.4,1.9-4.3,2.6c-1.9,0.7-3.8,1.1-5.8,1.1
						C59.8,267.1,56.8,265.8,54.7,263.1z M68.9,250.1c0.1-0.7,0.1-1.4,0.1-2.1c0-2.2-0.5-3.8-1.4-5.1c-0.9-1.2-2.3-1.9-4.1-1.9
						c-1.9,0-3.4,0.7-4.6,2.1c-1.1,1.4-1.8,3.7-2,7H68.9z"/>
					<path fill="#ffffff" d="M83.3,265.6c-1.7-1-3-2.5-3.9-4.6c-1-2.1-1.5-4.6-1.5-7.6c0-2.8,0.6-5.4,1.7-7.7c1.2-2.3,2.8-4.1,5-5.5
						c2.2-1.3,4.7-2,7.7-2c1.7,0,3.2,0.2,4.6,0.5v-9.3l-5.1-0.6v-2.1l8.9-0.9h0.1l1.1,0.8V264h2.9v2.3c-1.1,0.2-2,0.4-2.8,0.5
						c-0.8,0.1-1.6,0.2-2.5,0.2c-0.9,0-1.5-0.1-1.8-0.4c-0.4-0.3-0.5-0.9-0.5-1.9v-1.6c-0.9,1.1-2.1,2.1-3.6,2.8
						c-1.5,0.8-3.1,1.1-4.9,1.1C86.8,267.1,85,266.6,83.3,265.6z M94.4,262.7c1.1-0.6,2-1.2,2.5-2v-18.2c-0.3-0.4-0.9-0.8-1.9-1.1
						c-1-0.3-2-0.5-3.1-0.5c-2.6,0-4.6,1-6.2,3c-1.5,2-2.3,5-2.3,9.1c0,3.6,0.7,6.2,2,7.9c1.4,1.7,3.1,2.6,5.3,2.6
						C92,263.5,93.2,263.3,94.4,262.7z"/>
					<path fill="#ffffff" d="M112.5,242.3h-4.7V240l4.7-0.9v-2.3c0-2.1,0.5-3.9,1.6-5.7c1.1-1.7,2.5-3.1,4.2-4.1c1.7-1,3.6-1.5,5.5-1.5
						c1.1,0,2.1,0.1,2.9,0.4v5c-0.3-0.3-0.9-0.5-1.8-0.8c-0.9-0.2-1.8-0.4-2.9-0.4c-1.6,0-2.7,0.4-3.4,1.2c-0.7,0.8-1.1,2.2-1.1,4.2
						v3.9h6.8v3.2h-6.8v21.4l5.5,0.4v2.4h-14.9v-2.4l4.2-0.4V242.3z"/>
					<path fill="#ffffff" d="M128.2,244.9c1.2-2.2,2.8-3.8,4.8-5c2-1.1,4.1-1.7,6.4-1.7c4.2,0,7.3,1.3,9.4,4c2.1,2.6,3.2,6.1,3.2,10.4
						c0,3-0.6,5.6-1.8,7.8c-1.2,2.2-2.8,3.8-4.8,5c-2,1.1-4.1,1.7-6.4,1.7c-4.2,0-7.3-1.3-9.4-4c-2.1-2.6-3.2-6.1-3.2-10.4
						C126.4,249.7,127,247.1,128.2,244.9z M144.5,261.4c1.2-1.9,1.8-4.7,1.8-8.4c0-3.7-0.6-6.6-1.7-8.7c-1.1-2.1-2.9-3.2-5.4-3.2
						c-2.3,0-4,0.9-5.3,2.8c-1.2,1.9-1.9,4.7-1.9,8.4c0,3.7,0.6,6.6,1.7,8.7c1.2,2.2,3,3.2,5.4,3.2
						C141.5,264.2,143.3,263.3,144.5,261.4z"/>
					<path fill="#ffffff" d="M154.9,264.1l3.7-0.3v-21l-3.6-0.9v-2.7l6.8-0.9h0.1l1.1,0.9v0.9L163,244h0.1c0.3-0.6,0.9-1.3,1.8-2.2
						c0.9-0.9,2-1.7,3.3-2.5c1.4-0.7,2.8-1.1,4.4-1.1c0.7,0,1.2,0.1,1.6,0.2v5.6c-0.2-0.2-0.6-0.3-1.1-0.5s-1.1-0.2-1.7-0.2
						c-2.7,0-5.3,0.8-7.6,2.5v17.9l6.3,0.4v2.4h-15.2V264.1z"/>
					<path fill="#ffffff" d="M181.6,265.6c-1.7-1-3-2.5-3.9-4.6c-1-2.1-1.5-4.6-1.5-7.6c0-2.8,0.6-5.4,1.7-7.7c1.2-2.3,2.8-4.1,5-5.5
						c2.2-1.3,4.7-2,7.7-2c1.7,0,3.2,0.2,4.6,0.5v-9.3l-5.1-0.6v-2.1l8.9-0.9h0.1l1.1,0.8V264h2.9v2.3c-1.1,0.2-2,0.4-2.8,0.5
						c-0.8,0.1-1.6,0.2-2.5,0.2c-0.9,0-1.5-0.1-1.8-0.4c-0.4-0.3-0.5-0.9-0.5-1.9v-1.6c-0.9,1.1-2.1,2.1-3.6,2.8
						c-1.5,0.8-3.1,1.1-4.9,1.1C185.1,267.1,183.2,266.6,181.6,265.6z M192.6,262.7c1.1-0.6,2-1.2,2.5-2v-18.2
						c-0.3-0.4-0.9-0.8-1.9-1.1c-1-0.3-2-0.5-3.1-0.5c-2.6,0-4.6,1-6.2,3c-1.5,2-2.3,5-2.3,9.1c0,3.6,0.7,6.2,2,7.9
						c1.4,1.7,3.1,2.6,5.3,2.6C190.3,263.5,191.5,263.3,192.6,262.7z"/>
					<path fill="#ffffff" d="M226.4,266.6c-1.4-0.3-2.8-0.7-4.5-1.2c-1-0.4-1.7-0.6-2.2-0.6l0.4-9h3.2l0.8,6.5c0.6,0.5,1.5,1,2.8,1.4
						c1.3,0.4,2.7,0.6,4.2,0.6c2.5,0,4.4-0.6,5.7-1.7c1.3-1.1,2-2.7,2-4.7c0-1.3-0.4-2.4-1.1-3.3c-0.7-0.9-1.7-1.7-2.8-2.4
						c-1.2-0.7-2.8-1.4-4.8-2.3c-1.9-0.8-3.5-1.7-4.8-2.5c-1.4-0.9-2.6-2-3.6-3.4c-1-1.4-1.5-3.2-1.5-5.2c0-1.8,0.5-3.4,1.5-4.9
						c1-1.4,2.4-2.6,4.2-3.4c1.8-0.8,4-1.2,6.4-1.2c1.5,0,2.9,0.1,4,0.3c1.2,0.2,2.5,0.5,4,0.9c0.7,0.2,1.2,0.4,1.7,0.4l-0.3,8.3h-3
						l-1-6.1c-0.3-0.3-1-0.6-2.1-0.9s-2.2-0.4-3.4-0.4c-2.3,0-4,0.5-5.2,1.4c-1.2,1-1.8,2.3-1.8,4.2c0,1.3,0.4,2.4,1.1,3.3
						c0.7,0.9,1.6,1.7,2.7,2.3c1.1,0.6,2.7,1.5,5.1,2.6c2.2,1,3.9,2,5.3,2.8c1.4,0.8,2.5,1.9,3.5,3.3c1,1.3,1.5,2.9,1.5,4.8
						c0,1.8-0.5,3.4-1.5,5.1c-1,1.6-2.5,3-4.5,4c-2,1-4.4,1.6-7.3,1.6C229.3,267.1,227.8,266.9,226.4,266.6z"/>
					<path fill="#ffffff" d="M248.9,245.5c1.1-2.2,2.7-4,4.8-5.3c2.1-1.3,4.6-2,7.6-2c1.4,0,2.6,0.1,3.7,0.4c1,0.3,2.2,0.6,3.7,1.1
						l-0.2,7.6h-3.2l-1.1-5.1c-0.2-0.9-1.5-1.4-3.8-1.4c-2.3,0-4.1,0.9-5.5,2.8c-1.3,1.9-2,4.5-2,8c0,3.9,0.8,6.9,2.3,8.9
						c1.5,2,3.5,3.1,5.9,3.1c1.4,0,2.7-0.2,3.9-0.6c1.2-0.4,2.3-0.9,3.2-1.5l0.9,2c-0.9,0.9-2.2,1.8-3.9,2.5
						c-1.7,0.7-3.5,1.1-5.3,1.1c-2.7,0-5-0.6-6.9-1.8c-1.9-1.2-3.3-2.9-4.2-5c-0.9-2.1-1.4-4.6-1.4-7.3
						C247.3,250.2,247.8,247.7,248.9,245.5z"/>
					<path fill="#ffffff" d="M275.5,229.5l-4.2-0.5v-2.1l8.1-0.9h0.1l1.1,0.7v11.5l-0.2,4.2c1.1-1,2.5-1.9,4.4-2.7
						c1.9-0.9,3.7-1.3,5.6-1.3c2.1,0,3.7,0.4,4.9,1.2c1.2,0.8,2,2,2.4,3.6c0.5,1.6,0.7,3.8,0.7,6.6v13.8l3.5,0.4v2.4H290v-2.4
						l3.2-0.4v-13.9c0-2-0.1-3.5-0.4-4.6c-0.3-1.1-0.8-1.9-1.5-2.5c-0.7-0.5-1.8-0.8-3.3-0.8c-1.2,0-2.5,0.3-3.8,0.9
						c-1.4,0.6-2.5,1.3-3.6,2.1v18.8l3.4,0.4v2.4h-11.6v-2.4l3-0.4V229.5z"/>
					<path fill="#ffffff" d="M305.9,244.9c1.2-2.2,2.8-3.8,4.8-5c2-1.1,4.1-1.7,6.4-1.7c4.2,0,7.3,1.3,9.4,4c2.1,2.6,3.2,6.1,3.2,10.4
						c0,3-0.6,5.6-1.8,7.8c-1.2,2.2-2.8,3.8-4.8,5c-2,1.1-4.1,1.7-6.4,1.7c-4.2,0-7.3-1.3-9.4-4c-2.1-2.6-3.2-6.1-3.2-10.4
						C304.1,249.7,304.7,247.1,305.9,244.9z M322.2,261.4c1.2-1.9,1.8-4.7,1.8-8.4c0-3.7-0.6-6.6-1.7-8.7c-1.1-2.1-2.9-3.2-5.4-3.2
						c-2.3,0-4,0.9-5.3,2.8c-1.2,1.9-1.9,4.7-1.9,8.4c0,3.7,0.6,6.6,1.7,8.7c1.2,2.2,3,3.2,5.4,3.2
						C319.2,264.2,320.9,263.3,322.2,261.4z"/>
					<path fill="#ffffff" d="M335.3,244.9c1.2-2.2,2.8-3.8,4.8-5c2-1.1,4.1-1.7,6.4-1.7c4.2,0,7.3,1.3,9.4,4c2.1,2.6,3.2,6.1,3.2,10.4
						c0,3-0.6,5.6-1.8,7.8c-1.2,2.2-2.8,3.8-4.8,5c-2,1.1-4.1,1.7-6.4,1.7c-4.2,0-7.3-1.3-9.4-4c-2.1-2.6-3.2-6.1-3.2-10.4
						C333.5,249.7,334.1,247.1,335.3,244.9z M351.6,261.4c1.2-1.9,1.8-4.7,1.8-8.4c0-3.7-0.6-6.6-1.7-8.7c-1.1-2.1-2.9-3.2-5.4-3.2
						c-2.3,0-4,0.9-5.3,2.8c-1.2,1.9-1.9,4.7-1.9,8.4c0,3.7,0.6,6.6,1.7,8.7c1.2,2.2,3,3.2,5.4,3.2
						C348.6,264.2,350.4,263.3,351.6,261.4z"/>
					<path fill="#ffffff" d="M365.5,229.5l-4-0.5v-2.1l8-0.9h0.1l1.1,0.7v37.1l4.2,0.4v2.4h-13.4v-2.4l4-0.4V229.5z"/>
					<path fill="#ffffff" d="M397.4,264.7c-2.6-1.6-4.5-3.8-5.8-6.6c-1.3-2.8-2-6.2-2-10c0-3.7,0.8-7,2.3-9.8c1.6-2.8,3.7-5.1,6.4-6.6
						c2.7-1.6,5.8-2.4,9.1-2.4c2.5,0,5.6,0.4,9.2,1.2l1.6,0.3l-0.5,8.9h-3.3l-1.2-6.3c-0.5-0.4-1.3-0.7-2.4-1
						c-1.1-0.3-2.5-0.4-4.2-0.4c-2.1,0-4,0.6-5.7,1.8c-1.7,1.2-3,3-3.9,5.3c-0.9,2.3-1.4,5.2-1.4,8.4c0,3.1,0.4,5.9,1.2,8.5
						c0.8,2.5,2.1,4.6,3.8,6.1c1.7,1.5,3.8,2.3,6.3,2.3c1.8,0,3.1-0.1,4-0.4c0.9-0.3,1.7-0.7,2.4-1.3l2.1-4.9l3.1,0.4l-1.2,7
						c-0.7,0-1.7,0.3-3.1,0.7c-1.2,0.4-2.3,0.7-3.4,0.9c-1.1,0.2-2.5,0.3-4.1,0.3C403,267.1,399.9,266.3,397.4,264.7z"/>
					<path fill="#ffffff" d="M423.4,244.9c1.2-2.2,2.8-3.8,4.8-5c2-1.1,4.1-1.7,6.4-1.7c4.2,0,7.3,1.3,9.4,4c2.1,2.6,3.2,6.1,3.2,10.4
						c0,3-0.6,5.6-1.8,7.8c-1.2,2.2-2.8,3.8-4.8,5c-2,1.1-4.1,1.7-6.4,1.7c-4.2,0-7.3-1.3-9.4-4c-2.1-2.6-3.2-6.1-3.2-10.4
						C421.6,249.7,422.2,247.1,423.4,244.9z M439.7,261.4c1.2-1.9,1.8-4.7,1.8-8.4c0-3.7-0.6-6.6-1.7-8.7c-1.1-2.1-2.9-3.2-5.4-3.2
						c-2.3,0-4,0.9-5.3,2.8c-1.2,1.9-1.9,4.7-1.9,8.4c0,3.7,0.6,6.6,1.7,8.7c1.2,2.2,3,3.2,5.4,3.2
						C436.7,264.2,438.4,263.3,439.7,261.4z"/>
					<path fill="#ffffff" d="M450.3,264.1l3-0.4v-20.8l-3.6-0.9v-2.7l7.1-0.9l0.9,0.6l0.3,2l0,1.6c1.2-1.1,2.7-2,4.7-2.9
						c2-0.9,3.8-1.3,5.4-1.3c1.8,0,3.2,0.3,4.3,0.9c1.1,0.6,1.9,1.5,2.5,2.8c1.1-0.9,2.5-1.7,4.4-2.5c1.9-0.8,3.7-1.2,5.3-1.2
						c2.1,0,3.7,0.4,4.8,1.2c1.2,0.8,2,2,2.5,3.6c0.5,1.6,0.7,3.8,0.7,6.6v13.9l3.6,0.4v2.4h-11.8v-2.4l3.1-0.4v-13.8
						c0-1.9-0.1-3.4-0.4-4.6c-0.3-1.1-0.8-2-1.6-2.6c-0.8-0.6-1.9-0.8-3.3-0.8c-1.1,0-2.2,0.2-3.5,0.7c-1.2,0.5-2.3,1.1-3.1,1.7
						c0.3,1.3,0.4,3.1,0.4,5.5v13.8l3.5,0.4v2.4h-12v-2.4l3.3-0.4v-13.9c0-2-0.1-3.5-0.4-4.6c-0.2-1.1-0.7-1.9-1.4-2.5
						c-0.7-0.5-1.8-0.8-3.2-0.8c-1.2,0-2.5,0.3-3.8,0.9c-1.3,0.6-2.5,1.3-3.5,2.1v18.8l3.3,0.4v2.4h-11.6V264.1z"/>
					<path fill="#ffffff" d="M499.5,264.1l3-0.4v-20.8l-3.6-0.9v-2.7l7.1-0.9l0.9,0.6l0.3,2l0,1.6c1.2-1.1,2.7-2,4.7-2.9
						c2-0.9,3.8-1.3,5.4-1.3c1.8,0,3.2,0.3,4.3,0.9c1.1,0.6,1.9,1.5,2.5,2.8c1.1-0.9,2.5-1.7,4.4-2.5c1.9-0.8,3.7-1.2,5.3-1.2
						c2.1,0,3.7,0.4,4.8,1.2c1.2,0.8,2,2,2.5,3.6c0.5,1.6,0.7,3.8,0.7,6.6v13.9l3.6,0.4v2.4h-11.8v-2.4l3.1-0.4v-13.8
						c0-1.9-0.1-3.4-0.4-4.6c-0.3-1.1-0.8-2-1.6-2.6c-0.8-0.6-1.9-0.8-3.3-0.8c-1.1,0-2.2,0.2-3.5,0.7c-1.2,0.5-2.3,1.1-3.1,1.7
						c0.3,1.3,0.4,3.1,0.4,5.5v13.8l3.5,0.4v2.4h-12v-2.4l3.3-0.4v-13.9c0-2-0.1-3.5-0.4-4.6c-0.2-1.1-0.7-1.9-1.4-2.5
						c-0.7-0.5-1.8-0.8-3.2-0.8c-1.2,0-2.5,0.3-3.8,0.9c-1.3,0.6-2.5,1.3-3.5,2.1v18.8l3.3,0.4v2.4h-11.6V264.1z"/>
					<path fill="#ffffff" d="M552.7,242.8l-3.8-0.9v-2.6l7.7-0.9h0.1l1.1,0.9v24.5l4,0.4v2.4h-13.2v-2.4l4-0.4V242.8z M552.3,233.1
						c-0.5-0.6-0.8-1.4-0.8-2.3c0-1.1,0.3-1.9,1-2.6c0.6-0.7,1.5-1,2.7-1c1.1,0,2,0.3,2.5,0.9c0.5,0.6,0.8,1.4,0.8,2.3
						c0,1.1-0.3,2-1,2.7c-0.6,0.7-1.5,1-2.7,1h0C553.6,234,552.8,233.7,552.3,233.1z"/>
					<path fill="#ffffff" d="M567.7,265.7c-0.9-0.9-1.4-2.3-1.4-4.4v-19.1h-3.6V240c0.2,0,0.6-0.1,1.4-0.3c0.8-0.2,1.3-0.4,1.5-0.5
						c0.5-0.3,0.9-0.9,1.2-1.8c0.3-0.6,0.6-1.6,0.9-3c0.4-1.4,0.6-2.2,0.6-2.5h2.9l0.1,7.1h8.3v3.3h-8.3v15.2c0,1.9,0.1,3.2,0.2,4
						c0.1,0.8,0.4,1.3,0.7,1.5c0.4,0.2,1,0.3,2,0.3c0.9,0,1.9-0.1,3-0.3c1.1-0.2,1.9-0.5,2.5-0.7l0.7,2.2c-0.8,0.6-2.1,1.2-3.8,1.7
						c-1.8,0.6-3.4,0.8-4.8,0.8C570.1,267,568.7,266.6,567.7,265.7z"/>
					<path fill="#ffffff" d="M588,265.7c-0.9-0.9-1.4-2.3-1.4-4.4v-19.1H583V240c0.2,0,0.6-0.1,1.4-0.3c0.8-0.2,1.3-0.4,1.5-0.5
						c0.5-0.3,0.9-0.9,1.2-1.8c0.3-0.6,0.6-1.6,0.9-3c0.4-1.4,0.6-2.2,0.6-2.5h2.9l0.1,7.1h8.3v3.3h-8.3v15.2c0,1.9,0.1,3.2,0.2,4
						c0.1,0.8,0.4,1.3,0.7,1.5c0.4,0.2,1,0.3,2,0.3c0.9,0,1.9-0.1,3-0.3c1.1-0.2,1.9-0.5,2.5-0.7l0.7,2.2c-0.8,0.6-2.1,1.2-3.8,1.7
						c-1.8,0.6-3.4,0.8-4.8,0.8C590.3,267,588.9,266.6,588,265.7z"/>
					<path fill="#ffffff" d="M605.6,263.1c-2.1-2.6-3.2-6.1-3.2-10.5c0-2.9,0.5-5.4,1.6-7.6s2.6-3.9,4.6-5.1c2-1.2,4.2-1.8,6.7-1.8
						c3.1,0,5.5,0.9,7.2,2.6c1.7,1.7,2.6,4.1,2.7,7.3c0,2-0.1,3.6-0.3,4.6h-17.1c0.1,3.3,0.8,5.9,2.3,7.9c1.5,2,3.5,3,6.2,3
						c1.3,0,2.7-0.2,4.1-0.7c1.4-0.5,2.6-1,3.3-1.7l0.9,2.2c-1,1-2.4,1.9-4.3,2.6c-1.9,0.7-3.8,1.1-5.8,1.1
						C610.8,267.1,607.7,265.8,605.6,263.1z M619.8,250.1c0.1-0.7,0.1-1.4,0.1-2.1c0-2.2-0.5-3.8-1.4-5.1c-0.9-1.2-2.3-1.9-4.1-1.9
						c-1.9,0-3.4,0.7-4.6,2.1c-1.1,1.4-1.8,3.7-2,7H619.8z"/>
					<path fill="#ffffff" d="M632,263.1c-2.1-2.6-3.2-6.1-3.2-10.5c0-2.9,0.5-5.4,1.6-7.6s2.6-3.9,4.6-5.1c2-1.2,4.2-1.8,6.7-1.8
						c3.1,0,5.5,0.9,7.2,2.6c1.7,1.7,2.6,4.1,2.7,7.3c0,2-0.1,3.6-0.3,4.6h-17.1c0.1,3.3,0.8,5.9,2.3,7.9c1.5,2,3.5,3,6.2,3
						c1.3,0,2.7-0.2,4.1-0.7c1.4-0.5,2.6-1,3.3-1.7l0.9,2.2c-1,1-2.4,1.9-4.3,2.6c-1.9,0.7-3.8,1.1-5.8,1.1
						C637.2,267.1,634.1,265.8,632,263.1z M646.2,250.1c0.1-0.7,0.1-1.4,0.1-2.1c0-2.2-0.5-3.8-1.4-5.1c-0.9-1.2-2.3-1.9-4.1-1.9
						c-1.9,0-3.4,0.7-4.6,2.1c-1.1,1.4-1.8,3.7-2,7H646.2z"/>
				</g>
			</g>
			<polygon fill="#ffffff" points="294.7,180.8 297.5,189.3 306.4,189.3 299.2,194.5 301.9,203 294.7,197.7 287.5,203 290.3,194.5
				283.1,189.3 292,189.3 		"/>
			<polygon fill="#ffffff" points="362.8,180.8 365.6,189.3 374.5,189.3 367.3,194.5 370,203 362.8,197.7 355.6,203 358.4,194.5
				351.2,189.3 360.1,189.3 		"/>
			<polygon fill="#ffffff" points="328.8,180.8 331.5,189.3 340.4,189.3 333.2,194.5 336,203 328.8,197.7 321.6,203 324.3,194.5
				317.1,189.3 326,189.3 		"/>
			<g>
				<rect x="3.6" y="191.9" fill="#ffffff" width="254.8" height="1.8"/>
			</g>
			<g>
				<rect x="395.5" y="191.9" fill="#ffffff" width="253.9" height="1.8"/>
			</g>
			<g>
				<path fill="#ffffff" d="M160.7,3c0.1-1.9,0.3-3,1.1-3c0.5,0,0.8,0.2,2.4,1.5c2.6,2.2,5.8,5.3,20,18.2c6.3,5.8,10.6,9.9,12.2,11.4
					L196,8c-0.1-3.5-0.4-5.1-2.9-5.5c-0.9-0.2-1.9-0.2-2.7-0.3c-0.8,0-1.1-0.3-1.1-0.6c0-0.4,0.6-0.6,1.2-0.6c2.5,0,6.5,0.2,9,0.2
					c1.4,0,4.4-0.2,7-0.2c0.9,0,1.4,0.2,1.4,0.6c0,0.3-0.3,0.7-1.1,0.7c-0.8,0.1-1.1,0.1-1.5,0.2c-2,0.2-2.7,1.3-2.8,5.1
					c-0.5,12.4-0.5,24.8-0.7,37.2c0,3.2-0.4,3.8-1.2,3.8c-1,0-2.9-1.5-6.9-5c-4.2-3.7-9.6-8.6-13.3-12c-3.5-3.2-9.6-9-14.1-13.3
					l0.6,21.1c0.1,4.4,0.4,6.1,2.1,6.7c0.9,0.3,2,0.3,3.3,0.4c0.9,0.1,1.2,0.2,1.2,0.6c0,0.5-0.5,0.6-1.5,0.6c-2.2,0-4.1-0.1-8-0.2
					c-1.4,0-6,0.2-8.4,0.2c-0.9,0-1.4-0.1-1.4-0.6c0-0.4,0.3-0.6,1.2-0.6c0.6-0.1,1.4-0.1,2-0.2c2.4-0.4,2.7-1.9,2.9-7.7
					C160.5,25.8,160.3,10.9,160.7,3z"/>
				<path fill="#ffffff" d="M219.1,22.7c0-8.3,0-9.8-0.2-11.4c-0.1-1.4-0.5-2.4-1.9-2.6c-0.4-0.1-1-0.2-1.7-0.2
					c-0.7-0.1-1.1-0.2-1.1-0.6c0-0.3,0.2-0.6,1.2-0.6c2.2,0,8.1,0.2,8.3,0.2c0.3,0,7.3-0.2,9.4-0.2c1,0,1.1,0.2,1.1,0.6
					c0,0.4-0.4,0.6-1.1,0.6c-0.6,0.1-0.6,0.1-1.2,0.2c-1.5,0.3-2,0.9-2.2,2.7c-0.2,1.7-0.2,3-0.2,11.4v9.4c0,4.1,0.1,9.1,0.3,11.4
					c0.1,1.4,0.5,2.3,2.2,2.7c0.7,0.2,1.7,0.2,2.3,0.2c0.9,0,1.2,0.4,1.2,0.7c0,0.2-0.2,0.6-1.2,0.6c-3.8,0-10.2-0.2-10.5-0.2
					c-0.1,0-6.5,0.2-8.3,0.2c-0.9,0-1.3-0.2-1.3-0.6c0-0.3,0.3-0.6,0.9-0.6c0.5-0.1,1.1-0.1,1.8-0.2c1.2-0.2,1.7-1.4,1.8-2.9
					c0.3-2.2,0.4-5.9,0.4-11.2V22.7z"/>
				<path fill="#ffffff" d="M247.7,42.5c-5.5-4.5-7-9.9-7-15.8c0-3.6,1.4-10.4,7-14.9c4.9-4,10.6-5.4,18.5-5.4c3.1,0,5.8,0.3,7.9,0.6
					c2.6,0.4,3.7,0.7,5.4,0.7c0.6,0.1,0.6,0.4,0.6,0.7c0,0.4-0.1,2-0.2,3.8c-0.1,1.8-0.1,4.9-0.2,6.4c-0.1,0.8-0.2,1.3-0.7,1.3
					c-0.4,0-0.6-0.4-0.7-1.2c-0.1-1.1-0.1-3.3-2-5.3c-1.9-2-5.7-3.3-11.1-3.3c-2.9,0-5.7,0.7-7.7,2.4c-3.3,2.6-4.8,7.4-4.8,13.2
					c0,10.6,5.7,18.2,15.2,18.2c4.4,0,7-0.4,9.2-2.7c0.7-0.7,1.4-2.2,1.8-3.9c0.2-1.1,0.4-1.3,0.9-1.3c0.4,0,0.6,0.4,0.6,0.9
					c0,1.1-0.7,5.7-1.2,8.3c-0.2,0.9-0.6,1.5-1.5,1.8c-2.2,0.9-6,1.2-9.5,1.2C260.8,48.4,253.7,47.3,247.7,42.5z"/>
				<path fill="#ffffff" d="M287.1,27.6c0-11.2,7.7-21.2,23.9-21.2c14.1,0,22.9,9.5,22.9,20c0,12.5-8.7,22-23.3,22
					C294.2,48.4,287.1,37.1,287.1,27.6z M322.1,28.8c0-8.2-3-18.8-13-18.8C304.3,10,299,12.4,299,25c0,9.9,4,19.7,13.2,19.7
					C315.5,44.7,322.1,43.4,322.1,28.8z"/>
				<path fill="#ffffff" d="M355.5,32.1c0,5.1-0.2,9,0.7,10.1c0.8,1.1,1.8,1.3,6.4,1.3c3.1,0,4.6-0.1,6.1-0.6c1.5-0.6,2.7-1.9,3.4-4.9
					c0.1-0.6,0.3-1.1,0.8-1.1c0.4,0,0.5,0.4,0.5,1.1c0,1.4-0.8,6.7-1.4,8.3c-0.5,1.4-0.9,1.4-2.9,1.4c-8.3,0-13.5-0.3-19.3-0.3
					c-2.6,0-5.4,0.2-8.5,0.2c-0.9,0-1.3-0.2-1.3-0.7c0-0.2,0.3-0.6,1.1-0.6c0.6-0.1,0.7-0.1,1.3-0.1c2.2-0.4,2.5-1.2,2.7-6.2
					c0-2.1,0.1-5.1,0.1-8v-9.4c0-8.9-0.1-9.5-0.2-11.2c-0.1-1.5-0.6-2.3-1.9-2.7c-0.5-0.1-1.2-0.2-2-0.3c-0.6-0.1-1.1-0.2-1.1-0.6
					c0-0.4,0.4-0.6,1.5-0.6c3.3,0,6.1,0.2,8.4,0.2c0.3,0,7.5-0.2,9.5-0.2c1,0,1.2,0.2,1.2,0.6c0,0.5-0.5,0.7-1,0.7
					c-0.6,0.1-0.9,0.1-1.7,0.2c-1.5,0.2-2,1.2-2.1,3.2c-0.1,1.7-0.2,2.5-0.2,11.6V32.1z"/>
				<path fill="#ffffff" d="M382.3,22.7c0-8.9-0.1-9.9-0.2-11.6c-0.1-1.4-0.7-2.2-2-2.5c-0.5-0.1-1.1-0.1-1.7-0.2
					c-0.8-0.1-0.9-0.4-0.9-0.7s0.3-0.6,1.2-0.6c3.3,0,5.9,0.2,8.3,0.2c1,0,15.2-0.1,16.1-0.1c1,0,2.2-0.1,3.2-0.2
					c0.4-0.1,0.7-0.2,0.9-0.2c0.3,0,0.4,0.2,0.4,0.6c-0.1,0.7-0.3,1.4-0.4,2.6c-0.1,1.4-0.1,2.5-0.3,5.8c0,0.4-0.2,0.9-0.6,0.9
					c-0.3,0-0.6-0.2-0.6-0.7c-0.1-0.7-0.1-1.2-0.3-2c-0.3-1.2-1-2-3.6-2.2c-2-0.1-6.5-0.2-8.3-0.2c-0.3,0-0.4,0.2-0.4,0.6v11.3
					c0,0.4,0.1,0.5,0.4,0.5c1.7,0,5.5,0,7.7-0.1c3-0.1,3.8-0.3,4.4-1.4c0.2-0.5,0.5-0.7,0.7-0.7c0.4,0,0.4,0.4,0.4,0.7
					c0,0.6-0.4,3-0.4,4.9c-0.1,1.2-0.1,4-0.1,4.6c0,0.7-0.2,0.9-0.6,0.9c-0.3,0-0.6-0.2-0.6-0.9c-0.1-0.3-0.1-0.7-0.1-1.1
					c-0.3-1.7-0.9-2.7-3.8-2.8c-1.7-0.1-5.9-0.2-7.7-0.2c-0.3,0-0.4,0.1-0.4,0.4v3.9c0,1.8-0.1,4.3,0,6.5c0.1,3.8,0.7,4.6,7,4.6
					c1.4,0,3.6-0.1,5.1-0.6c1.5-0.6,2.2-1.9,2.7-4.4c0.1-0.6,0.4-0.9,0.7-0.9c0.4,0,0.5,0.4,0.5,1.1c0,2.3-0.6,6.7-0.8,7.7
					c-0.4,1.4-0.9,1.4-2.9,1.4c-8.3,0-12.2-0.3-18.1-0.3c-2.6,0-5.3,0.2-8.4,0.2c-1.1,0-1.3-0.3-1.3-0.7c0-0.2,0.2-0.6,1.1-0.6
					c0.6-0.1,1-0.1,1.6-0.2c1.8-0.3,2-2.4,2.2-6.2c0-2,0.1-5,0.1-8V22.7z"/>
			</g>
		</g>
	</g>
</svg>
