<?xml version="1.0" encoding="utf-8"?>
<!-- Generator: Adobe Illustrator 22.1.0, SVG Export Plug-In . SVG Version: 6.00 Build 0)  -->
<svg version="1.1" id="Layer_1" xmlns="http://www.w3.org/2000/svg" xmlns:xlink="http://www.w3.org/1999/xlink" x="0px" y="0px"
	 viewBox="0 0 611.1 131.8" style="enable-background:new 0 0 611.1 131.8;" xml:space="preserve">
<style type="text/css">
	.st0{fill:#FFFFFF;}
</style>
<g>
	<g>
		<path class="st0" d="M8,3.6c0.1-2.2,0.4-3.6,1.3-3.6c0.6,0,1,0.2,2.9,1.8c3.1,2.6,7,6.3,24,21.9c7.6,7,12.7,12,14.7,13.7L50.4,9.7
			c-0.1-4.2-0.5-6.1-3.5-6.6c-1-0.2-2.2-0.3-3.3-0.4c-1,0-1.3-0.4-1.3-0.7c0-0.5,0.7-0.7,1.5-0.7c3,0,7.8,0.2,10.8,0.2
			c1.6,0,5.3-0.2,8.5-0.2c1.1,0,1.6,0.2,1.6,0.7c0,0.4-0.4,0.8-1.3,0.8c-1,0.1-1.3,0.1-1.9,0.2c-2.5,0.3-3.2,1.6-3.4,6.2
			c-0.6,14.9-0.6,29.8-0.9,44.7c0,3.8-0.5,4.6-1.5,4.6c-1.2,0-3.5-1.8-8.3-6c-5.1-4.5-11.6-10.3-16-14.4c-4.2-3.8-11.6-10.8-17-16
			l0.7,25.3c0.1,5.3,0.4,7.4,2.5,8.1c1.1,0.4,2.5,0.4,3.9,0.5c1.1,0.1,1.5,0.3,1.5,0.7c0,0.6-0.6,0.7-1.8,0.7c-2.6,0-5-0.1-9.6-0.2
			c-1.7,0-7.2,0.2-10.1,0.2c-1,0-1.6-0.1-1.6-0.7c0-0.4,0.4-0.7,1.4-0.7c0.7-0.1,1.6-0.1,2.5-0.2c2.9-0.4,3.3-2.3,3.5-9.2
			C7.7,31.1,7.6,13.2,8,3.6z"/>
		<path class="st0" d="M73.7,27.3c0-10,0-11.7-0.2-13.7c-0.1-1.7-0.6-2.9-2.2-3.1c-0.4-0.1-1.2-0.2-2.1-0.3C68.3,10.1,68,9.9,68,9.4
			c0-0.4,0.2-0.7,1.5-0.7c2.6,0,9.7,0.2,10,0.2c0.4,0,8.8-0.2,11.3-0.2C91.9,8.7,92,9,92,9.4c0,0.5-0.5,0.7-1.3,0.7
			c-0.7,0.1-0.7,0.1-1.5,0.2c-1.8,0.4-2.4,1-2.7,3.3c-0.2,2.1-0.2,3.6-0.2,13.7v11.3c0,4.9,0.1,11,0.4,13.7c0.1,1.6,0.6,2.7,2.6,3.2
			c0.9,0.2,2,0.2,2.7,0.3c1.1,0,1.4,0.4,1.4,0.8c0,0.3-0.3,0.7-1.4,0.7c-4.6,0-12.3-0.2-12.6-0.2c-0.1,0-7.9,0.2-10,0.2
			c-1.1,0-1.6-0.2-1.6-0.7c0-0.4,0.4-0.7,1.1-0.7c0.6-0.1,1.3-0.1,2.2-0.2c1.4-0.3,2-1.6,2.2-3.5c0.4-2.7,0.4-7.1,0.4-13.5V27.3z"/>
		<path class="st0" d="M103.7,51.2c-6.6-5.4-8.5-12-8.5-18.9c0-4.4,1.6-12.5,8.4-17.9c5.9-4.8,12.7-6.5,22.2-6.5
			c3.7,0,7,0.4,9.5,0.7c3.1,0.5,4.5,0.8,6.5,0.8c0.7,0.1,0.7,0.5,0.7,0.9c0,0.5-0.1,2.4-0.3,4.5c-0.1,2.2-0.1,5.9-0.3,7.7
			c-0.1,1-0.3,1.6-0.9,1.6c-0.5,0-0.7-0.5-0.8-1.4c-0.1-1.3-0.1-3.9-2.5-6.4c-2.3-2.5-6.8-4-13.3-4c-3.5,0-6.8,0.9-9.2,2.9
			c-3.9,3.1-5.8,8.9-5.8,15.9c0,12.8,6.9,21.9,18.3,21.9c5.3,0,8.5-0.4,11.1-3.2c0.8-0.9,1.7-2.7,2.2-4.7c0.3-1.3,0.5-1.6,1-1.6
			c0.4,0,0.7,0.4,0.7,1.1c0,1.3-0.9,6.9-1.4,10c-0.2,1.1-0.7,1.8-1.8,2.2c-2.6,1-7.2,1.4-11.4,1.4C119.5,58.2,110.9,56.9,103.7,51.2
			z"/>
		<path class="st0" d="M146.6,33.3c0-13.4,9.2-25.5,28.7-25.5c16.9,0,27.6,11.4,27.6,24c0,15.1-10.5,26.4-28,26.4
			C155.1,58.2,146.6,44.6,146.6,33.3z M188.6,34.8c0-9.8-3.6-22.7-15.6-22.7c-5.7,0-12.2,2.9-12.2,18c0,11.9,4.8,23.7,15.8,23.7
			C180.8,53.8,188.6,52.2,188.6,34.8z"/>
		<path class="st0" d="M224.4,38.7c0,6.1-0.2,10.8,0.8,12.2c1,1.3,2.2,1.6,7.7,1.6c3.7,0,5.5-0.1,7.4-0.7c1.9-0.7,3.3-2.3,4.1-5.9
			c0.1-0.7,0.4-1.3,1-1.3c0.4,0,0.6,0.4,0.6,1.3c0,1.6-1,8.1-1.6,10c-0.6,1.7-1,1.7-3.5,1.7c-10,0-16.2-0.4-23.2-0.4
			c-3.1,0-6.5,0.2-10.2,0.2c-1,0-1.6-0.2-1.6-0.8c0-0.3,0.4-0.7,1.3-0.7c0.7-0.1,0.8-0.1,1.6-0.1c2.7-0.4,3-1.5,3.2-7.4
			c0-2.5,0.1-6.1,0.1-9.7V27.3c0-10.7-0.1-11.4-0.2-13.5c-0.1-1.8-0.7-2.8-2.3-3.3c-0.6-0.1-1.5-0.3-2.5-0.4
			c-0.7-0.1-1.3-0.2-1.3-0.7c0-0.5,0.5-0.7,1.9-0.7c4,0,7.3,0.2,10.1,0.2c0.4,0,9-0.2,11.4-0.2c1.2,0,1.5,0.3,1.5,0.7
			c0,0.6-0.6,0.8-1.2,0.8c-0.7,0.1-1,0.1-2,0.3c-1.9,0.3-2.4,1.5-2.5,3.8c-0.1,2.1-0.2,3-0.2,13.9V38.7z"/>
		<path class="st0" d="M252.1,27.3c0-10.7-0.1-11.9-0.2-14c-0.1-1.6-0.8-2.7-2.4-3c-0.6-0.1-1.3-0.1-2-0.2c-1-0.1-1.1-0.4-1.1-0.8
			c0-0.4,0.4-0.7,1.4-0.7c4,0,7.1,0.2,10,0.2c1.2,0,18.3-0.1,19.3-0.1c1.3,0,2.7-0.1,3.8-0.3c0.4-0.1,0.8-0.2,1-0.2
			c0.4,0,0.5,0.3,0.4,0.7c-0.1,0.8-0.4,1.6-0.5,3.1c-0.1,1.6-0.1,3-0.4,7c0,0.5-0.3,1-0.7,1c-0.4,0-0.7-0.3-0.7-0.9
			c-0.1-0.9-0.1-1.4-0.4-2.4c-0.4-1.5-1.2-2.4-4.4-2.7c-2.5-0.1-7.9-0.3-10-0.3c-0.4,0-0.5,0.2-0.5,0.7v13.6c0,0.4,0.1,0.6,0.5,0.6
			c2,0,6.6,0,9.2-0.1c3.6-0.1,4.5-0.4,5.3-1.6c0.3-0.6,0.6-0.8,0.9-0.8c0.4,0,0.5,0.4,0.5,0.8c0,0.7-0.4,3.6-0.5,5.9
			c-0.1,1.4-0.1,4.8-0.1,5.6c0,0.9-0.2,1.1-0.7,1.1c-0.4,0-0.7-0.3-0.7-1c-0.1-0.4-0.1-0.8-0.1-1.3c-0.4-2-1.1-3.2-4.6-3.4
			c-2.1-0.1-7.1-0.2-9.2-0.2c-0.4,0-0.4,0.1-0.4,0.5v4.7c0,2.2-0.1,5.2,0,7.8c0.1,4.5,0.9,5.6,8.5,5.6c1.7,0,4.3-0.1,6.2-0.7
			c1.9-0.7,2.6-2.3,3.2-5.3c0.1-0.7,0.4-1.1,0.9-1.1c0.5,0,0.6,0.5,0.6,1.3c0,2.8-0.7,8-1,9.3c-0.5,1.6-1,1.7-3.5,1.7
			c-10,0-14.7-0.4-21.8-0.4c-3.1,0-6.3,0.2-10.1,0.2c-1.3,0-1.6-0.4-1.6-0.8c0-0.3,0.2-0.7,1.3-0.7c0.7-0.1,1.2-0.1,1.9-0.2
			c2.2-0.4,2.4-2.9,2.6-7.4c0-2.5,0.1-6,0.1-9.6V27.3z"/>
		<path class="st0" d="M370.2,47.8c0.6,4.8,1.3,6.7,3.8,7.4c1.5,0.4,3.3,0.6,4.2,0.7c1,0,1.4,0.2,1.4,0.7c0,0.6-0.6,0.7-1.8,0.7
			c-6.2,0-12.2,0-20.6-0.4c-1.4-0.1-1.7-0.5-1.7-0.9c0-0.3,0.3-0.6,0.8-0.7c1.2-0.4,1.3-0.9,1-4.2l-2.7-26.6l-15.3,28.7
			c-2,3.8-2.5,4.2-3,4.2c-0.8,0-1.3-0.7-3.3-4c-2.6-4.2-7.1-12.6-10-17.4c-1.3-2.2-4.5-8.2-5.9-10.8l-2.2,20.9
			c-0.3,3.2-0.3,4.8-0.3,5.9c0,2.2,0.7,3,2.6,3.4c1.1,0.2,1.8,0.3,2.7,0.4c1.1,0,1.3,0.2,1.3,0.7c0,0.6-0.3,0.8-1.5,0.8
			c-3.3,0-7.4-0.2-9.6-0.2c-2.3,0-5.8,0.2-8.5,0.2c-0.7,0-1.6,0-1.6-0.7c0-0.4,0.4-0.7,1.5-0.7c0.6-0.1,1.4-0.1,2.2-0.2
			c2.2-0.4,2.9-2.2,3.6-7.1l6.8-45.7c0.3-2.2,0.8-2.9,1.6-2.9c0.8,0,1.3,0.7,2.9,3l21.2,35.6l20.3-35.9c1.2-1.9,1.8-2.7,2.5-2.7
			s1.2,1,1.4,2.9L370.2,47.8z"/>
		<path class="st0" d="M377.5,33.3c0-13.4,9.2-25.5,28.7-25.5c16.9,0,27.6,11.4,27.6,24c0,15.1-10.5,26.4-28,26.4
			C386,58.2,377.5,44.6,377.5,33.3z M419.5,34.8c0-9.8-3.6-22.7-15.6-22.7c-5.7,0-12.2,2.9-12.2,18c0,11.9,4.8,23.7,15.8,23.7
			C411.7,53.8,419.5,52.2,419.5,34.8z"/>
		<path class="st0" d="M442.7,27.3c0-10-0.1-11-0.2-13.1c-0.1-2.7-1.3-3.6-2.7-3.8c-1.2-0.2-1.8-0.2-2.3-0.3c-0.8,0-1.1-0.4-1.1-0.7
			c0-0.4,0.2-0.7,1.3-0.7c2.7,0,9.5,0.2,10.3,0.2c1.1,0,8.1-0.2,11.4-0.2c6.7,0,11.3,0.7,14,2.2c3.6,1.8,6.3,5,6.3,10
			c0,5.1-3.4,9.1-8.8,12.6c3.5,5.3,8.2,12.4,12.3,16.9c3.4,3.9,5,4.9,7.1,5.2c0.7,0.1,1.3,0.1,1.8,0.2c0.7,0.1,1,0.4,1,0.8
			c0,0.6-0.7,0.7-1.3,0.7h-5.8c-7.7,0-10.9-0.7-13.4-2.3c-1.9-1.3-4-3.9-6.4-7.7c-3.1-5.2-4.2-7.4-5.5-9.3c-0.1-0.2-0.4-0.4-0.7-0.4
			l-4.5-0.1c-0.3,0-0.5,0.1-0.5,0.5V42c0,4.8,0.1,7.9,0.3,9.9c0.1,1.6,0.5,3,2.5,3.5c0.9,0.3,2.2,0.4,3,0.4c1.2,0.1,1.2,0.4,1.2,0.8
			c0,0.4-0.3,0.7-1.3,0.7c-4.5,0-12.4-0.2-12.8-0.2c-0.7,0-7.7,0.2-9.9,0.2c-1.1,0-1.3-0.4-1.3-0.8c0-0.4,0.4-0.7,1.2-0.7
			c0.6-0.1,1.6-0.1,2.3-0.2c1.3-0.3,1.9-1.4,2.1-3.7c0.3-2.7,0.4-7,0.4-13.3V27.3z M455,31.3c0,0.4,0.3,0.7,0.6,1
			c1.3,0.7,3.6,0.9,5.5,0.9c1.5,0,3-0.3,4.1-1c1.2-0.9,2.3-3.5,2.3-7.6c0-9.1-6.2-11.3-9.6-11.3c-1,0-2.1,0-2.5,0.2
			c-0.3,0.1-0.4,0.2-0.4,0.7V31.3z"/>
		<path class="st0" d="M492.6,27.3c0-10.7-0.1-11.9-0.2-14c-0.1-1.6-0.8-2.7-2.4-3c-0.6-0.1-1.3-0.1-2-0.2c-1-0.1-1.1-0.4-1.1-0.8
			c0-0.4,0.4-0.7,1.4-0.7c4,0,7.1,0.2,10,0.2c1.2,0,18.3-0.1,19.3-0.1c1.3,0,2.7-0.1,3.8-0.3c0.4-0.1,0.8-0.2,1-0.2
			c0.4,0,0.5,0.3,0.4,0.7c-0.1,0.8-0.4,1.6-0.5,3.1c-0.1,1.6-0.1,3-0.4,7c0,0.5-0.3,1-0.7,1c-0.4,0-0.7-0.3-0.7-0.9
			c-0.1-0.9-0.1-1.4-0.4-2.4c-0.4-1.5-1.2-2.4-4.4-2.7c-2.5-0.1-7.9-0.3-10-0.3c-0.4,0-0.5,0.2-0.5,0.7v13.6c0,0.4,0.1,0.6,0.5,0.6
			c2,0,6.6,0,9.2-0.1c3.6-0.1,4.5-0.4,5.3-1.6c0.3-0.6,0.6-0.8,0.9-0.8c0.4,0,0.5,0.4,0.5,0.8c0,0.7-0.4,3.6-0.5,5.9
			c-0.1,1.4-0.1,4.8-0.1,5.6c0,0.9-0.2,1.1-0.7,1.1c-0.4,0-0.7-0.3-0.7-1c-0.1-0.4-0.1-0.8-0.1-1.3c-0.4-2-1.1-3.2-4.6-3.4
			c-2.1-0.1-7.1-0.2-9.2-0.2c-0.4,0-0.4,0.1-0.4,0.5v4.7c0,2.2-0.1,5.2,0,7.8c0.1,4.5,0.9,5.6,8.5,5.6c1.7,0,4.3-0.1,6.2-0.7
			c1.9-0.7,2.6-2.3,3.2-5.3c0.1-0.7,0.4-1.1,0.9-1.1c0.5,0,0.6,0.5,0.6,1.3c0,2.8-0.7,8-1,9.3c-0.5,1.6-1,1.7-3.5,1.7
			c-10,0-14.7-0.4-21.8-0.4c-3.1,0-6.3,0.2-10.1,0.2c-1.3,0-1.6-0.4-1.6-0.8c0-0.3,0.2-0.7,1.3-0.7c0.7-0.1,1.2-0.1,1.9-0.2
			c2.2-0.4,2.4-2.9,2.6-7.4c0-2.5,0.1-6,0.1-9.6V27.3z"/>
		<path class="st0" d="M545.7,38.7c0,6.1-0.2,10.8,0.8,12.2c1,1.3,2.2,1.6,7.7,1.6c3.7,0,5.5-0.1,7.4-0.7c1.9-0.7,3.3-2.3,4.1-5.9
			c0.1-0.7,0.4-1.3,1-1.3c0.4,0,0.6,0.4,0.6,1.3c0,1.6-1,8.1-1.6,10c-0.6,1.7-1,1.7-3.5,1.7c-10,0-16.2-0.4-23.2-0.4
			c-3.1,0-6.5,0.2-10.2,0.2c-1,0-1.6-0.2-1.6-0.8c0-0.3,0.4-0.7,1.3-0.7c0.7-0.1,0.8-0.1,1.6-0.1c2.7-0.4,3-1.5,3.2-7.4
			c0-2.5,0.1-6.1,0.1-9.7V27.3c0-10.7-0.1-11.4-0.2-13.5c-0.1-1.8-0.7-2.8-2.3-3.3c-0.6-0.1-1.5-0.3-2.5-0.4
			c-0.7-0.1-1.3-0.2-1.3-0.7c0-0.5,0.5-0.7,1.9-0.7c4,0,7.3,0.2,10.1,0.2c0.4,0,9-0.2,11.4-0.2c1.2,0,1.5,0.3,1.5,0.7
			c0,0.6-0.6,0.8-1.2,0.8c-0.7,0.1-1,0.1-2,0.3c-1.9,0.3-2.4,1.5-2.5,3.8c-0.1,2.1-0.2,3-0.2,13.9V38.7z"/>
		<path class="st0" d="M586.1,38.7c0,6.1-0.2,10.8,0.8,12.2c1,1.3,2.2,1.6,7.7,1.6c3.7,0,5.5-0.1,7.4-0.7c1.9-0.7,3.3-2.3,4.1-5.9
			c0.1-0.7,0.4-1.3,1-1.3c0.4,0,0.6,0.4,0.6,1.3c0,1.6-1,8.1-1.6,10c-0.6,1.7-1,1.7-3.5,1.7c-10,0-16.2-0.4-23.2-0.4
			c-3.1,0-6.5,0.2-10.2,0.2c-1,0-1.6-0.2-1.6-0.8c0-0.3,0.4-0.7,1.3-0.7c0.7-0.1,0.8-0.1,1.6-0.1c2.7-0.4,3-1.5,3.2-7.4
			c0-2.5,0.1-6.1,0.1-9.7V27.3c0-10.7-0.1-11.4-0.2-13.5c-0.1-1.8-0.7-2.8-2.3-3.3c-0.6-0.1-1.5-0.3-2.5-0.4
			c-0.7-0.1-1.3-0.2-1.3-0.7c0-0.5,0.5-0.7,1.9-0.7c4,0,7.3,0.2,10.1,0.2c0.4,0,9-0.2,11.4-0.2c1.2,0,1.5,0.3,1.5,0.7
			c0,0.6-0.6,0.8-1.2,0.8c-0.7,0.1-1,0.1-2,0.3c-1.9,0.3-2.4,1.5-2.5,3.8c-0.1,2.1-0.2,3-0.2,13.9V38.7z"/>
	</g>
</g>
<g>
	<g>
		<path class="st0" d="M5.8,100H2.3v-1.7l3.5-0.7v-1.8c0-1.5,0.4-3,1.2-4.3c0.8-1.3,1.9-2.3,3.2-3.1c1.3-0.8,2.7-1.1,4.2-1.1
			c0.8,0,1.6,0.1,2.2,0.3v3.7c-0.2-0.2-0.7-0.4-1.3-0.6c-0.7-0.2-1.4-0.3-2.2-0.3c-1.2,0-2,0.3-2.6,0.9c-0.5,0.6-0.8,1.7-0.8,3.2v3
			h5.2v2.4H9.7v16.2l4.2,0.3v1.8H2.6v-1.8l3.2-0.3V100z"/>
		<path class="st0" d="M18,102.1c0.9-1.6,2.1-2.9,3.6-3.8c1.5-0.9,3.1-1.3,4.8-1.3c3.1,0,5.5,1,7.1,3c1.6,2,2.4,4.6,2.4,7.9
			c0,2.3-0.5,4.2-1.4,5.9s-2.1,2.9-3.6,3.7c-1.5,0.8-3.1,1.3-4.8,1.3c-3.1,0-5.5-1-7.1-3c-1.6-2-2.4-4.6-2.4-7.9
			C16.6,105.7,17,103.7,18,102.1z M30.2,114.5c0.9-1.4,1.4-3.5,1.4-6.3c0-2.8-0.4-5-1.3-6.6c-0.8-1.6-2.2-2.4-4.1-2.4
			c-1.7,0-3,0.7-4,2.1s-1.4,3.5-1.4,6.3c0,2.8,0.4,5,1.3,6.6s2.2,2.4,4.1,2.4C28,116.6,29.3,115.9,30.2,114.5z"/>
		<path class="st0" d="M38.3,116.5l2.8-0.2v-15.8l-2.7-0.7v-2l5.2-0.7h0.1l0.8,0.7v0.7l-0.1,2.9h0.1c0.2-0.4,0.7-1,1.3-1.6
			c0.6-0.7,1.5-1.3,2.5-1.9c1-0.6,2.1-0.8,3.3-0.8c0.5,0,0.9,0.1,1.2,0.2v4.2c-0.2-0.1-0.5-0.2-0.8-0.4c-0.4-0.1-0.8-0.2-1.3-0.2
			c-2.1,0-4,0.6-5.8,1.9v13.5l4.8,0.3v1.8H38.3V116.5z"/>
	</g>
</g>
<g>
	<g>
		<path class="st0" d="M76.9,81.9L71,81.3v-2.7h14.2l7.6,24.1l1.8,6.8l1.6-6.8l7.5-24.1h14.1v2.7l-5.9,0.6l4.3,33.3l4.7,0.6v2.6
			h-15.5v-2.6l4.9-0.5l-2.4-24.1l-1.1-10.4l-2.3,7.7l-9,28.1h-3.5l-8.7-25.7l-3.2-10.1l-1,10.4l-2.1,24.1l5.3,0.5v2.6h-14v-2.6
			l4.6-0.5L76.9,81.9z"/>
		<path class="st0" d="M125.1,114.8c-2.3-2.8-3.4-6.6-3.4-11.3c0-3.1,0.6-5.8,1.8-8.2c1.2-2.4,2.8-4.2,5-5.5
			c2.1-1.3,4.6-1.9,7.3-1.9c3.3,0,5.9,0.9,7.8,2.8c1.8,1.8,2.8,4.5,2.9,7.9c0,2.2-0.1,3.8-0.4,5h-18.5c0.1,3.5,0.9,6.4,2.5,8.6
			c1.6,2.2,3.8,3.2,6.7,3.2c1.4,0,2.9-0.3,4.5-0.8c1.6-0.5,2.8-1.1,3.6-1.9l1,2.4c-1,1.1-2.6,2-4.6,2.8c-2,0.8-4.1,1.2-6.2,1.2
			C130.7,119.1,127.4,117.7,125.1,114.8z M140.5,100.7c0.1-0.8,0.2-1.5,0.2-2.3c0-2.3-0.5-4.2-1.5-5.5c-0.9-1.3-2.4-2-4.5-2
			c-2.1,0-3.7,0.8-5,2.3c-1.2,1.5-1.9,4-2.1,7.6H140.5z"/>
		<path class="st0" d="M156.1,117.5c-1.8-1.1-3.2-2.7-4.3-4.9c-1.1-2.2-1.6-5-1.6-8.2c0-3,0.6-5.8,1.9-8.3c1.3-2.5,3-4.5,5.4-5.9
			c2.3-1.4,5.1-2.2,8.3-2.2c1.8,0,3.5,0.2,5,0.6v-10l-5.5-0.6v-2.3l9.7-1h0.2l1.2,0.9v40.4h3.1v2.5c-1.1,0.3-2.1,0.4-3,0.6
			c-0.8,0.1-1.7,0.2-2.7,0.2c-0.9,0-1.6-0.2-2-0.5c-0.4-0.3-0.6-1-0.6-2v-1.7c-1,1.2-2.3,2.2-3.9,3.1c-1.6,0.8-3.4,1.2-5.3,1.2
			C159.9,119.1,157.9,118.5,156.1,117.5z M168.1,114.3c1.2-0.6,2.1-1.3,2.7-2.2V92.5c-0.3-0.4-1-0.8-2-1.2c-1.1-0.3-2.2-0.5-3.4-0.5
			c-2.8,0-5,1.1-6.7,3.2c-1.7,2.1-2.5,5.4-2.5,9.8c0,3.9,0.7,6.7,2.2,8.6c1.5,1.9,3.4,2.8,5.7,2.8
			C165.6,115.3,166.9,114.9,168.1,114.3z"/>
		<path class="st0" d="M187.8,92.2h-5v-2.5l5-1v-2.5c0-2.2,0.6-4.3,1.7-6.1c1.2-1.9,2.7-3.3,4.6-4.4c1.9-1.1,3.9-1.6,6-1.6
			c1.2,0,2.3,0.2,3.2,0.5v5.4c-0.3-0.3-1-0.6-1.9-0.8c-0.9-0.3-2-0.4-3.1-0.4c-1.7,0-2.9,0.4-3.7,1.3c-0.8,0.9-1.2,2.4-1.2,4.5v4.2
			h7.4v3.5h-7.4v23.2l6,0.4v2.6h-16.1v-2.6l4.6-0.5V92.2z"/>
		<path class="st0" d="M204.9,95.1c1.3-2.4,3.1-4.2,5.2-5.4c2.2-1.2,4.5-1.9,6.9-1.9c4.5,0,7.9,1.4,10.2,4.3
			c2.3,2.9,3.4,6.6,3.4,11.3c0,3.3-0.7,6.1-2,8.4c-1.3,2.4-3.1,4.2-5.2,5.4c-2.2,1.2-4.5,1.8-6.9,1.8c-4.5,0-7.9-1.4-10.2-4.3
			c-2.3-2.9-3.4-6.6-3.4-11.3C202.9,100.3,203.5,97.5,204.9,95.1z M222.5,112.9c1.3-2,2-5.1,2-9.1c0-4-0.6-7.1-1.8-9.4
			c-1.2-2.3-3.2-3.5-5.8-3.5c-2.5,0-4.4,1-5.7,3.1c-1.3,2-2,5.1-2,9.1c0,4,0.6,7.1,1.9,9.4c1.3,2.3,3.2,3.5,5.8,3.5
			C219.2,116,221.1,115,222.5,112.9z"/>
		<path class="st0" d="M233.7,115.8l4-0.3V92.8l-3.9-1V89l7.4-1h0.1l1.2,1v1l-0.2,4.2h0.2c0.4-0.6,1-1.4,1.9-2.4
			c0.9-1,2.1-1.9,3.6-2.7c1.5-0.8,3.1-1.2,4.8-1.2c0.7,0,1.3,0.1,1.8,0.3v6c-0.3-0.2-0.7-0.3-1.2-0.5c-0.6-0.2-1.2-0.2-1.9-0.2
			c-3,0-5.7,0.9-8.3,2.7v19.3l6.8,0.4v2.6h-16.4V115.8z"/>
		<path class="st0" d="M262.6,117.5c-1.8-1.1-3.2-2.7-4.3-4.9c-1.1-2.2-1.6-5-1.6-8.2c0-3,0.6-5.8,1.9-8.3c1.3-2.5,3-4.5,5.4-5.9
			c2.3-1.4,5.1-2.2,8.3-2.2c1.8,0,3.5,0.2,5,0.6v-10l-5.5-0.6v-2.3l9.7-1h0.2l1.2,0.9v40.4h3.1v2.5c-1.1,0.3-2.1,0.4-3,0.6
			c-0.8,0.1-1.7,0.2-2.7,0.2c-0.9,0-1.6-0.2-2-0.5c-0.4-0.3-0.6-1-0.6-2v-1.7c-1,1.2-2.3,2.2-3.9,3.1c-1.6,0.8-3.4,1.2-5.3,1.2
			C266.4,119.1,264.4,118.5,262.6,117.5z M274.6,114.3c1.2-0.6,2.1-1.3,2.7-2.2V92.5c-0.3-0.4-1-0.8-2-1.2c-1.1-0.3-2.2-0.5-3.4-0.5
			c-2.8,0-5,1.1-6.7,3.2c-1.7,2.1-2.5,5.4-2.5,9.8c0,3.9,0.7,6.7,2.2,8.6c1.5,1.9,3.4,2.8,5.7,2.8
			C272.1,115.3,273.4,114.9,274.6,114.3z"/>
		<path class="st0" d="M310.8,116.5c-2.8-1.7-4.9-4.1-6.3-7.2c-1.4-3.1-2.1-6.7-2.1-10.8c0-4,0.8-7.5,2.5-10.6
			c1.7-3.1,4-5.5,6.9-7.2c2.9-1.7,6.2-2.5,9.9-2.5c2.8,0,6.1,0.4,9.9,1.3l1.8,0.3l-0.5,9.7h-3.6l-1.3-6.8c-0.5-0.4-1.4-0.8-2.6-1.1
			c-1.2-0.3-2.7-0.5-4.5-0.5c-2.3,0-4.3,0.7-6.1,2c-1.8,1.3-3.2,3.2-4.2,5.8s-1.5,5.6-1.5,9.1c0,3.4,0.4,6.4,1.3,9.2
			c0.9,2.8,2.3,4.9,4.1,6.6c1.8,1.6,4.1,2.4,6.8,2.4c1.9,0,3.4-0.2,4.4-0.5c1-0.3,1.9-0.8,2.6-1.4l2.3-5.3l3.4,0.4l-1.3,7.6
			c-0.8,0-1.9,0.3-3.3,0.8c-1.3,0.4-2.5,0.7-3.7,0.9c-1.2,0.2-2.7,0.3-4.5,0.3C316.9,119.1,313.6,118.2,310.8,116.5z"/>
		<path class="st0" d="M341,92.8l-4.1-1V89l8.3-1h0.1l1.2,1v26.5l4.3,0.4v2.6h-14.2v-2.6l4.3-0.5V92.8z M340.6,82.4
			c-0.6-0.6-0.9-1.5-0.9-2.5c0-1.1,0.3-2.1,1-2.8c0.7-0.8,1.7-1.1,2.9-1.1s2.1,0.3,2.7,1c0.6,0.6,0.9,1.5,0.9,2.5
			c0,1.2-0.3,2.2-1,2.9c-0.7,0.7-1.7,1.1-2.9,1.1h-0.1C342,83.3,341.2,83,340.6,82.4z"/>
		<path class="st0" d="M357.4,117.6c-1-0.9-1.5-2.5-1.5-4.8V92.2H352v-2.4c0.2,0,0.7-0.2,1.5-0.4c0.8-0.2,1.4-0.4,1.7-0.6
			c0.6-0.3,1-1,1.3-1.9c0.3-0.7,0.6-1.8,1-3.3c0.4-1.5,0.6-2.4,0.7-2.7h3.2l0.1,7.7h9v3.5h-9v16.5c0,2,0.1,3.5,0.2,4.3
			c0.1,0.8,0.4,1.4,0.8,1.6s1.1,0.4,2.1,0.4c1,0,2-0.1,3.2-0.4c1.2-0.2,2.1-0.5,2.7-0.8l0.8,2.4c-0.9,0.6-2.2,1.3-4.2,1.9
			c-1.9,0.6-3.7,0.9-5.2,0.9C359.9,119,358.4,118.5,357.4,117.6z"/>
		<path class="st0" d="M378.2,131.7c-0.6-0.1-1-0.2-1.3-0.3v-4.7c0.2,0.1,0.6,0.2,1.3,0.3c0.6,0.1,1.2,0.1,1.8,0.1
			c1.7,0,3.2-0.6,4.5-1.8c1.3-1.2,2.6-3.5,3.8-6.9h-2.6l-10.2-26.6l-2.5-0.7v-2.5H386v2.5l-4.1,0.6l5.3,15.8l2.5,7.8l2.3-7.9
			l4.8-15.8l-3.6-0.6v-2.5h10.8v2.5l-2.7,0.6c-5.3,16.1-8.4,25.2-9.3,27.4c-1.2,3.1-2.3,5.5-3.3,7.2c-1,1.7-2.2,3.1-3.5,4
			c-1.4,0.9-3,1.4-5,1.4C379.4,131.8,378.8,131.8,378.2,131.7z"/>
		<path class="st0" d="M426.9,116.5c-2.8-1.7-4.9-4.1-6.3-7.2s-2.1-6.7-2.1-10.8c0-4,0.8-7.5,2.5-10.6c1.7-3.1,4-5.5,6.9-7.2
			c2.9-1.7,6.2-2.5,9.9-2.5c2.8,0,6.1,0.4,9.9,1.3l1.8,0.3l-0.5,9.7h-3.6l-1.3-6.8c-0.5-0.4-1.4-0.8-2.6-1.1
			c-1.2-0.3-2.7-0.5-4.5-0.5c-2.3,0-4.3,0.7-6.1,2c-1.8,1.3-3.2,3.2-4.2,5.8s-1.5,5.6-1.5,9.1c0,3.4,0.4,6.4,1.3,9.2
			c0.9,2.8,2.3,4.9,4.1,6.6s4.1,2.4,6.8,2.4c1.9,0,3.4-0.2,4.4-0.5c1-0.3,1.9-0.8,2.6-1.4l2.3-5.3l3.4,0.4l-1.3,7.6
			c-0.8,0-1.9,0.3-3.3,0.8c-1.3,0.4-2.5,0.7-3.7,0.9s-2.7,0.3-4.5,0.3C433,119.1,429.6,118.2,426.9,116.5z"/>
		<path class="st0" d="M455.1,95.1c1.3-2.4,3.1-4.2,5.2-5.4c2.2-1.2,4.5-1.9,6.9-1.9c4.5,0,7.9,1.4,10.2,4.3
			c2.3,2.9,3.4,6.6,3.4,11.3c0,3.3-0.7,6.1-2,8.4c-1.3,2.4-3.1,4.2-5.2,5.4c-2.2,1.2-4.5,1.8-6.9,1.8c-4.5,0-7.9-1.4-10.2-4.3
			c-2.3-2.9-3.4-6.6-3.4-11.3C453.1,100.3,453.7,97.5,455.1,95.1z M472.7,112.9c1.3-2,2-5.1,2-9.1c0-4-0.6-7.1-1.8-9.4
			c-1.2-2.3-3.2-3.5-5.8-3.5c-2.5,0-4.4,1-5.7,3.1c-1.3,2-2,5.1-2,9.1c0,4,0.6,7.1,1.9,9.4s3.2,3.5,5.8,3.5
			C469.4,116,471.3,115,472.7,112.9z"/>
		<path class="st0" d="M506.4,118.4c-0.5-0.4-0.7-1-0.7-1.9v-1.8c-1.2,1.2-2.7,2.2-4.4,3.1c-1.8,0.9-3.6,1.3-5.3,1.3
			c-3.3,0-5.7-0.9-7.1-2.7c-1.4-1.8-2.1-4.7-2.1-8.9V92l-3-0.9v-2.4l7.5-0.7h0.1l1,0.6v18.4c0,2.1,0.2,3.7,0.5,4.9s0.8,2,1.6,2.6
			c0.8,0.6,1.9,0.8,3.4,0.8c1.4,0,2.8-0.3,4-0.9s2.3-1.3,3.3-2.1V92l-3.9-0.9v-2.4l8.2-0.7h0.1l1.2,0.6v27h3.2l-0.1,2.4
			c-1,0.3-1.9,0.4-2.6,0.6c-0.7,0.1-1.6,0.2-2.5,0.2C507.6,119,506.8,118.8,506.4,118.4z"/>
		<path class="st0" d="M520.9,92.8l-3.9-1V89l7.7-1h0.2l1.1,1v2.3l-0.1,1.3c1.3-1.1,3-2.2,5.1-3.1c2.1-0.9,4.1-1.4,6.1-1.4
			c2.3,0,4,0.4,5.2,1.3s2.1,2.2,2.6,3.9s0.8,4.2,0.8,7.2v15l3.8,0.4v2.7h-12.7v-2.6l3.3-0.4v-15.1c0-2.1-0.1-3.8-0.4-5
			c-0.3-1.2-0.8-2.1-1.6-2.7c-0.8-0.6-1.9-0.9-3.4-0.9c-1.3,0-2.7,0.3-4.1,1c-1.5,0.6-2.8,1.4-3.9,2.3v20.3l3.6,0.5v2.6h-12.7v-2.6
			l3.4-0.5V92.8z"/>
		<path class="st0" d="M553.3,95.7c1.2-2.4,2.9-4.3,5.2-5.7c2.3-1.4,5-2.1,8.2-2.1c1.5,0,2.9,0.1,4,0.4c1.1,0.3,2.4,0.7,4,1.2
			l-0.2,8.3h-3.5l-1.2-5.5c-0.2-1-1.6-1.5-4.1-1.5s-4.5,1-5.9,3c-1.4,2-2.2,4.9-2.2,8.6c0,4.2,0.8,7.4,2.4,9.6
			c1.6,2.2,3.7,3.3,6.4,3.3c1.5,0,2.9-0.2,4.3-0.7s2.5-1,3.5-1.7l1,2.1c-1,1-2.4,1.9-4.3,2.7s-3.8,1.2-5.7,1.2c-2.9,0-5.4-0.7-7.4-2
			c-2-1.3-3.5-3.1-4.6-5.4s-1.5-4.9-1.5-7.9C551.6,100.8,552.2,98.1,553.3,95.7z"/>
		<path class="st0" d="M583.4,92.8l-4.1-1V89l8.3-1h0.1l1.2,1v26.5l4.3,0.4v2.6H579v-2.6l4.3-0.5V92.8z M582.9,82.4
			c-0.6-0.6-0.9-1.5-0.9-2.5c0-1.1,0.3-2.1,1-2.8c0.7-0.8,1.7-1.1,2.9-1.1s2.1,0.3,2.7,1c0.6,0.6,0.9,1.5,0.9,2.5
			c0,1.2-0.3,2.2-1,2.9c-0.7,0.7-1.7,1.1-2.9,1.1h-0.1C584.4,83.3,583.5,83,582.9,82.4z"/>
		<path class="st0" d="M601,78.4l-4.3-0.6v-2.3l8.6-1h0.1l1.2,0.8v40.1l4.6,0.4v2.6h-14.5v-2.6l4.3-0.5V78.4z"/>
	</g>
</g>
</svg>
